<mxfile host="Electron" agent="Mozilla/5.0 (Windows NT 10.0; Win64; x64) AppleWebKit/537.36 (KHTML, like Gecko) draw.io/28.0.6 Chrome/138.0.7204.100 Electron/37.2.3 Safari/537.36" version="28.0.6">
  <diagram name="Page-1" id="Afk6e6KhwsBHaRKUruhq">
    <mxGraphModel dx="786" dy="596" grid="1" gridSize="10" guides="1" tooltips="1" connect="1" arrows="1" fold="1" page="1" pageScale="1" pageWidth="850" pageHeight="1100" background="none" math="0" shadow="0">
      <root>
        <mxCell id="0" />
        <mxCell id="1" parent="0" />
        <mxCell id="pRqcYYbvUrU53pjMMwpT-1" value="" style="rounded=0;whiteSpace=wrap;html=1;fillStyle=auto;dashed=1;fontColor=light-dark(default, #7a7575);fontFamily=Garamond;" parent="1" vertex="1">
          <mxGeometry x="40" y="160" width="160" height="440" as="geometry" />
        </mxCell>
        <mxCell id="pRqcYYbvUrU53pjMMwpT-2" value="" style="rounded=0;whiteSpace=wrap;html=1;dashed=1;shadow=0;glass=0;" parent="1" vertex="1">
          <mxGeometry x="240" y="160" width="480" height="440" as="geometry" />
        </mxCell>
        <mxCell id="pRqcYYbvUrU53pjMMwpT-3" value="" style="rounded=0;whiteSpace=wrap;html=1;dashed=1;" parent="1" vertex="1">
          <mxGeometry x="760" y="160" width="160" height="440" as="geometry" />
        </mxCell>
        <mxCell id="pRqcYYbvUrU53pjMMwpT-5" value="&lt;font style=&quot;font-size: 24px;&quot;&gt;Source&lt;/font&gt;" style="rounded=0;whiteSpace=wrap;html=1;strokeColor=none;fontFamily=Lucida Console;" parent="1" vertex="1">
          <mxGeometry x="60" y="130" width="120" height="60" as="geometry" />
        </mxCell>
        <mxCell id="pRqcYYbvUrU53pjMMwpT-8" value="&lt;font style=&quot;font-size: 24px;&quot;&gt;Consume&lt;/font&gt;" style="rounded=0;whiteSpace=wrap;html=1;strokeColor=none;fontFamily=Lucida Console;" parent="1" vertex="1">
          <mxGeometry x="780" y="130" width="120" height="60" as="geometry" />
        </mxCell>
        <mxCell id="pRqcYYbvUrU53pjMMwpT-9" value="&lt;font style=&quot;font-size: 24px;&quot;&gt;Data warehouse&lt;/font&gt;" style="rounded=0;whiteSpace=wrap;html=1;strokeColor=none;fontFamily=Lucida Console;" parent="1" vertex="1">
          <mxGeometry x="370" y="130" width="220" height="60" as="geometry" />
        </mxCell>
        <mxCell id="pRqcYYbvUrU53pjMMwpT-10" value="&lt;font style=&quot;color: rgb(0, 0, 0);&quot; face=&quot;Courier New&quot;&gt;&lt;b&gt;Bronze layer&lt;/b&gt;&lt;/font&gt;" style="rounded=1;whiteSpace=wrap;html=1;fillColor=#fad7ac;strokeColor=#b46504;shadow=0;gradientColor=none;gradientDirection=east;" parent="1" vertex="1">
          <mxGeometry x="260" y="190" width="120" height="30" as="geometry" />
        </mxCell>
        <mxCell id="pRqcYYbvUrU53pjMMwpT-11" value="" style="rounded=1;whiteSpace=wrap;html=1;fillColor=#fad7ac;strokeColor=#FAD7AC;glass=0;opacity=70;gradientColor=none;gradientDirection=east;" parent="1" vertex="1">
          <mxGeometry x="260" y="230" width="120" height="360" as="geometry" />
        </mxCell>
        <mxCell id="pRqcYYbvUrU53pjMMwpT-12" value="&lt;font style=&quot;color: rgb(0, 0, 0);&quot; face=&quot;Courier New&quot;&gt;&lt;b&gt;Gold layer&lt;/b&gt;&lt;/font&gt;" style="rounded=1;whiteSpace=wrap;html=1;fillColor=#ffcd28;strokeColor=#d79b00;gradientColor=#ffa500;glass=0;shadow=0;gradientDirection=east;" parent="1" vertex="1">
          <mxGeometry x="580" y="190" width="120" height="30" as="geometry" />
        </mxCell>
        <mxCell id="pRqcYYbvUrU53pjMMwpT-13" value="&lt;font style=&quot;color: rgb(0, 0, 0);&quot; face=&quot;Courier New&quot;&gt;&lt;b&gt;Silver layer&lt;/b&gt;&lt;/font&gt;" style="rounded=1;whiteSpace=wrap;html=1;fillColor=#f5f5f5;strokeColor=#666666;gradientColor=#b3b3b3;gradientDirection=east;" parent="1" vertex="1">
          <mxGeometry x="420" y="190" width="120" height="30" as="geometry" />
        </mxCell>
        <mxCell id="pRqcYYbvUrU53pjMMwpT-14" value="" style="rounded=1;whiteSpace=wrap;html=1;fillColor=#ffcd28;strokeColor=#d79b00;gradientColor=#ffa500;glass=1;opacity=70;gradientDirection=east;" parent="1" vertex="1">
          <mxGeometry x="580" y="230" width="120" height="360" as="geometry" />
        </mxCell>
        <mxCell id="pRqcYYbvUrU53pjMMwpT-15" value="" style="rounded=1;whiteSpace=wrap;html=1;fillColor=#f5f5f5;strokeColor=#666666;gradientColor=#b3b3b3;glass=0;shadow=0;opacity=70;gradientDirection=east;" parent="1" vertex="1">
          <mxGeometry x="420" y="230" width="120" height="360" as="geometry" />
        </mxCell>
        <mxCell id="pRqcYYbvUrU53pjMMwpT-40" value="&lt;b style=&quot;text-wrap-mode: wrap;&quot;&gt;&lt;font style=&quot;font-size: 15px;&quot;&gt;CRM&lt;/font&gt;&lt;/b&gt;" style="image;aspect=fixed;html=1;points=[];align=center;fontSize=12;image=img/lib/azure2/general/Folder_Blank.svg;" parent="1" vertex="1">
          <mxGeometry x="86.94" y="240" width="49.29" height="40" as="geometry" />
        </mxCell>
        <mxCell id="pRqcYYbvUrU53pjMMwpT-41" value="&lt;span style=&quot;font-size: 15px; text-wrap-mode: wrap;&quot;&gt;&lt;b style=&quot;&quot;&gt;ERP&lt;/b&gt;&lt;/span&gt;" style="image;aspect=fixed;html=1;points=[];align=center;fontSize=12;image=img/lib/azure2/general/Folder_Blank.svg;" parent="1" vertex="1">
          <mxGeometry x="88.83" y="350" width="49.29" height="40" as="geometry" />
        </mxCell>
        <mxCell id="pRqcYYbvUrU53pjMMwpT-33" value="" style="image;aspect=fixed;html=1;points=[];align=center;fontSize=12;image=img/lib/azure2/general/File.svg;" parent="1" vertex="1">
          <mxGeometry x="115.64999999999999" y="362.31" width="22.47" height="27.69" as="geometry" />
        </mxCell>
        <mxCell id="pRqcYYbvUrU53pjMMwpT-38" value="" style="image;aspect=fixed;html=1;points=[];align=center;fontSize=12;image=img/lib/azure2/general/File.svg;" parent="1" vertex="1">
          <mxGeometry x="113.77" y="250" width="24.35" height="30" as="geometry" />
        </mxCell>
        <mxCell id="pRqcYYbvUrU53pjMMwpT-52" value="" style="endArrow=none;html=1;rounded=0;shadow=1;fillColor=#f5f5f5;gradientColor=#b3b3b3;strokeColor=#666666;" parent="1" edge="1">
          <mxGeometry width="50" height="50" relative="1" as="geometry">
            <mxPoint x="60" y="460" as="sourcePoint" />
            <mxPoint x="180" y="460" as="targetPoint" />
          </mxGeometry>
        </mxCell>
        <mxCell id="pRqcYYbvUrU53pjMMwpT-53" value="&lt;b&gt;Object type:&lt;/b&gt;" style="text;html=1;align=center;verticalAlign=middle;whiteSpace=wrap;rounded=0;fontColor=light-dark(default, #828282);fontSize=13;textShadow=0;fontFamily=Garamond;" parent="1" vertex="1">
          <mxGeometry x="50" y="470" width="80" height="30" as="geometry" />
        </mxCell>
        <mxCell id="pRqcYYbvUrU53pjMMwpT-54" value="CSV" style="text;html=1;align=center;verticalAlign=middle;whiteSpace=wrap;rounded=0;labelPosition=center;verticalLabelPosition=middle;labelBorderColor=none;labelBackgroundColor=none;fontSize=13;fontColor=light-dark(default, #828282);textShadow=0;fontFamily=Garamond;" parent="1" vertex="1">
          <mxGeometry x="120" y="470" width="60" height="30" as="geometry" />
        </mxCell>
        <mxCell id="pRqcYYbvUrU53pjMMwpT-55" value="&lt;b&gt;Interface:&lt;/b&gt;" style="text;html=1;align=center;verticalAlign=middle;whiteSpace=wrap;rounded=0;fontColor=light-dark(default, #828282);fontSize=13;textShadow=0;fontFamily=Garamond;" parent="1" vertex="1">
          <mxGeometry x="50" y="500" width="60" height="30" as="geometry" />
        </mxCell>
        <mxCell id="pRqcYYbvUrU53pjMMwpT-56" value="Files in folder" style="text;html=1;align=center;verticalAlign=middle;whiteSpace=wrap;rounded=0;fontColor=light-dark(default, #828282);fontSize=13;textShadow=0;fontFamily=Garamond;" parent="1" vertex="1">
          <mxGeometry x="113.77" y="500" width="80" height="30" as="geometry" />
        </mxCell>
        <mxCell id="pRqcYYbvUrU53pjMMwpT-59" value="" style="html=1;verticalLabelPosition=bottom;align=center;labelBackgroundColor=#ffffff;verticalAlign=top;strokeWidth=2;shadow=0;dashed=0;shape=mxgraph.ios7.icons.data;fillColor=light-dark(#ffcc99, #c3a688);strokeColor=#36393d;" parent="1" vertex="1">
          <mxGeometry x="297" y="296" width="46" height="50" as="geometry" />
        </mxCell>
        <mxCell id="pRqcYYbvUrU53pjMMwpT-60" value="" style="html=1;verticalLabelPosition=bottom;align=center;labelBackgroundColor=#ffffff;verticalAlign=top;strokeWidth=2;strokeColor=#b46504;shadow=0;dashed=0;shape=mxgraph.ios7.icons.data;fillColor=#fad7ac;" parent="1" vertex="1">
          <mxGeometry x="617" y="296" width="46" height="50" as="geometry" />
        </mxCell>
        <mxCell id="pRqcYYbvUrU53pjMMwpT-61" value="" style="html=1;verticalLabelPosition=bottom;align=center;labelBackgroundColor=#ffffff;verticalAlign=top;strokeWidth=2;strokeColor=#666666;shadow=0;dashed=0;shape=mxgraph.ios7.icons.data;fillColor=#f5f5f5;fontColor=#333333;" parent="1" vertex="1">
          <mxGeometry x="457" y="296" width="46" height="50" as="geometry" />
        </mxCell>
        <mxCell id="pRqcYYbvUrU53pjMMwpT-65" value="&lt;font face=&quot;Verdana&quot; style=&quot;color: light-dark(rgb(0, 0, 0), rgb(0, 0, 0)); font-size: 15px;&quot;&gt;&lt;span style=&quot;line-height: 100%;&quot;&gt;Raw-Data&lt;/span&gt;&lt;/font&gt;" style="text;html=1;align=center;verticalAlign=middle;whiteSpace=wrap;rounded=0;" parent="1" vertex="1">
          <mxGeometry x="260" y="350.31" width="120" height="30" as="geometry" />
        </mxCell>
        <mxCell id="pRqcYYbvUrU53pjMMwpT-66" value="&lt;font face=&quot;Verdana&quot; style=&quot;color: light-dark(rgb(0, 0, 0), rgb(0, 0, 0)); font-size: 15px;&quot;&gt;&lt;span style=&quot;line-height: 100%;&quot;&gt;Business ready - Data&lt;/span&gt;&lt;/font&gt;" style="text;html=1;align=center;verticalAlign=middle;whiteSpace=wrap;rounded=0;" parent="1" vertex="1">
          <mxGeometry x="580" y="360" width="120" height="30" as="geometry" />
        </mxCell>
        <mxCell id="pRqcYYbvUrU53pjMMwpT-67" value="&lt;font face=&quot;Verdana&quot; style=&quot;color: light-dark(rgb(0, 0, 0), rgb(0, 0, 0)); font-size: 15px;&quot;&gt;&lt;span style=&quot;line-height: 100%;&quot;&gt;Cleaned-Data&lt;/span&gt;&lt;/font&gt;" style="text;html=1;align=center;verticalAlign=middle;whiteSpace=wrap;rounded=0;" parent="1" vertex="1">
          <mxGeometry x="420" y="350.31" width="120" height="30" as="geometry" />
        </mxCell>
        <mxCell id="pRqcYYbvUrU53pjMMwpT-72" value="" style="endArrow=none;html=1;rounded=0;exitX=0.083;exitY=0.677;exitDx=0;exitDy=0;exitPerimeter=0;" parent="1" edge="1">
          <mxGeometry width="50" height="50" relative="1" as="geometry">
            <mxPoint x="271.48" y="419.9999999999999" as="sourcePoint" />
            <mxPoint x="368.52" y="420.13" as="targetPoint" />
          </mxGeometry>
        </mxCell>
        <mxCell id="pRqcYYbvUrU53pjMMwpT-73" value="" style="endArrow=none;html=1;rounded=0;exitX=0.083;exitY=0.677;exitDx=0;exitDy=0;exitPerimeter=0;" parent="1" edge="1">
          <mxGeometry width="50" height="50" relative="1" as="geometry">
            <mxPoint x="591.48" y="419.9999999999999" as="sourcePoint" />
            <mxPoint x="688.52" y="420.13" as="targetPoint" />
          </mxGeometry>
        </mxCell>
        <mxCell id="pRqcYYbvUrU53pjMMwpT-74" value="" style="endArrow=none;html=1;rounded=0;exitX=0.083;exitY=0.677;exitDx=0;exitDy=0;exitPerimeter=0;" parent="1" edge="1">
          <mxGeometry width="50" height="50" relative="1" as="geometry">
            <mxPoint x="431.48" y="419.9999999999999" as="sourcePoint" />
            <mxPoint x="528.52" y="420.13" as="targetPoint" />
          </mxGeometry>
        </mxCell>
        <mxCell id="pRqcYYbvUrU53pjMMwpT-80" value="" style="rounded=1;whiteSpace=wrap;html=1;fillColor=none;strokeColor=none;" parent="1" vertex="1">
          <mxGeometry x="260" y="420" width="120" height="170" as="geometry" />
        </mxCell>
        <mxCell id="pRqcYYbvUrU53pjMMwpT-81" value="&lt;font style=&quot;color: rgb(0, 0, 0);&quot; face=&quot;Garamond&quot;&gt;&lt;b style=&quot;&quot;&gt;&lt;font style=&quot;font-size: 13px;&quot;&gt;Object type : &lt;/font&gt;&lt;/b&gt;Tables&lt;/font&gt;" style="text;html=1;align=center;verticalAlign=middle;whiteSpace=wrap;rounded=0;strokeColor=none;" parent="1" vertex="1">
          <mxGeometry x="260" y="440" width="120" height="30" as="geometry" />
        </mxCell>
        <mxCell id="pRqcYYbvUrU53pjMMwpT-82" value="&lt;b&gt;&lt;font style=&quot;font-size: 13px;&quot; face=&quot;Garamond&quot;&gt;Load:&lt;/font&gt;&lt;/b&gt;" style="text;html=1;align=center;verticalAlign=middle;whiteSpace=wrap;rounded=0;strokeColor=none;fontColor=#000000;" parent="1" vertex="1">
          <mxGeometry x="260" y="465" width="50" height="30" as="geometry" />
        </mxCell>
        <mxCell id="pRqcYYbvUrU53pjMMwpT-86" value="" style="rounded=1;whiteSpace=wrap;html=1;fillColor=none;fillStyle=dots;strokeColor=none;fontColor=#000000;" parent="1" vertex="1">
          <mxGeometry x="580" y="420" width="120" height="170" as="geometry" />
        </mxCell>
        <mxCell id="pRqcYYbvUrU53pjMMwpT-87" value="&lt;b&gt;&lt;font style=&quot;font-size: 13px;&quot;&gt;Object type :&lt;/font&gt;&lt;/b&gt;&amp;nbsp;Views" style="text;html=1;align=center;verticalAlign=middle;whiteSpace=wrap;rounded=0;fontFamily=Garamond;fontColor=#000000;" parent="1" vertex="1">
          <mxGeometry x="580" y="440" width="120" height="30" as="geometry" />
        </mxCell>
        <mxCell id="pRqcYYbvUrU53pjMMwpT-92" value="" style="rounded=1;whiteSpace=wrap;html=1;fillColor=none;strokeColor=none;fontFamily=Garamond;" parent="1" vertex="1">
          <mxGeometry x="420" y="420" width="120" height="170" as="geometry" />
        </mxCell>
        <mxCell id="pRqcYYbvUrU53pjMMwpT-93" value="&lt;font style=&quot;color: rgb(0, 0, 0);&quot;&gt;&lt;b&gt;&lt;font style=&quot;font-size: 13px;&quot;&gt;Object type :&lt;/font&gt; &lt;/b&gt;Tables&lt;/font&gt;" style="text;html=1;align=center;verticalAlign=middle;whiteSpace=wrap;rounded=0;fillColor=none;strokeColor=none;fontFamily=Garamond;" parent="1" vertex="1">
          <mxGeometry x="420" y="440" width="120" height="30" as="geometry" />
        </mxCell>
        <mxCell id="pRqcYYbvUrU53pjMMwpT-94" value="&lt;b&gt;&lt;font style=&quot;font-size: 13px;&quot;&gt;Load:&amp;nbsp;&lt;/font&gt;&lt;/b&gt;" style="text;html=1;align=center;verticalAlign=middle;whiteSpace=wrap;rounded=0;fontFamily=Garamond;fontColor=#000000;" parent="1" vertex="1">
          <mxGeometry x="420" y="465" width="50" height="30" as="geometry" />
        </mxCell>
        <mxCell id="pRqcYYbvUrU53pjMMwpT-95" value="&lt;ul&gt;&lt;li&gt;&lt;font face=&quot;Garamond&quot;&gt;Batch process&lt;/font&gt;&lt;/li&gt;&lt;li&gt;&lt;font face=&quot;Garamond&quot;&gt;full load&lt;/font&gt;&lt;/li&gt;&lt;/ul&gt;" style="text;html=1;align=center;verticalAlign=middle;whiteSpace=wrap;rounded=0;strokeColor=none;fontColor=#000000;" parent="1" vertex="1">
          <mxGeometry x="273" y="500" width="70" height="40" as="geometry" />
        </mxCell>
        <mxCell id="pRqcYYbvUrU53pjMMwpT-99" value="&lt;ul&gt;&lt;li&gt;&lt;font face=&quot;Garamond&quot;&gt;Batch process&lt;/font&gt;&lt;/li&gt;&lt;li&gt;&lt;font face=&quot;Garamond&quot;&gt;full load&lt;/font&gt;&lt;/li&gt;&lt;/ul&gt;" style="text;html=1;align=center;verticalAlign=middle;whiteSpace=wrap;rounded=0;strokeColor=none;fontColor=#000000;" parent="1" vertex="1">
          <mxGeometry x="433" y="500" width="70" height="40" as="geometry" />
        </mxCell>
        <mxCell id="pRqcYYbvUrU53pjMMwpT-100" value="&lt;b&gt;&lt;font style=&quot;font-size: 13px;&quot;&gt;Data Model:&lt;/font&gt;&lt;/b&gt;" style="text;html=1;align=center;verticalAlign=middle;whiteSpace=wrap;rounded=0;fontFamily=Garamond;fontColor=#000000;" parent="1" vertex="1">
          <mxGeometry x="580" y="465" width="90" height="30" as="geometry" />
        </mxCell>
        <mxCell id="pRqcYYbvUrU53pjMMwpT-101" value="&lt;ul&gt;&lt;li&gt;&lt;font face=&quot;Garamond&quot;&gt;Star schema&lt;/font&gt;&lt;/li&gt;&lt;li&gt;&lt;font face=&quot;Garamond&quot;&gt;Aggregated table&lt;/font&gt;&lt;/li&gt;&lt;li&gt;&lt;font face=&quot;Garamond&quot;&gt;Flat table&lt;/font&gt;&lt;/li&gt;&lt;/ul&gt;" style="text;html=1;align=center;verticalAlign=middle;whiteSpace=wrap;rounded=0;strokeColor=none;fontColor=#000000;" parent="1" vertex="1">
          <mxGeometry x="600" y="510" width="70" height="40" as="geometry" />
        </mxCell>
        <mxCell id="pRqcYYbvUrU53pjMMwpT-102" value="" style="shape=flexArrow;endArrow=classic;html=1;rounded=0;entryX=0;entryY=1;entryDx=0;entryDy=0;fillColor=#b1ddf0;strokeColor=#10739e;" parent="1" edge="1">
          <mxGeometry width="50" height="50" relative="1" as="geometry">
            <mxPoint x="710" y="400" as="sourcePoint" />
            <mxPoint x="776.23" y="399.99999999999994" as="targetPoint" />
          </mxGeometry>
        </mxCell>
        <mxCell id="pRqcYYbvUrU53pjMMwpT-103" value="" style="shape=flexArrow;endArrow=classic;html=1;rounded=0;entryX=0;entryY=1;entryDx=0;entryDy=0;fillColor=#b1ddf0;strokeColor=#10739e;" parent="1" edge="1">
          <mxGeometry width="50" height="50" relative="1" as="geometry">
            <mxPoint x="193.77" y="400.31" as="sourcePoint" />
            <mxPoint x="260" y="400" as="targetPoint" />
          </mxGeometry>
        </mxCell>
        <mxCell id="pRqcYYbvUrU53pjMMwpT-104" value="" style="shape=flexArrow;endArrow=classic;html=1;rounded=0;entryX=0;entryY=1;entryDx=0;entryDy=0;fillColor=#b1ddf0;strokeColor=#10739e;" parent="1" edge="1">
          <mxGeometry width="50" height="50" relative="1" as="geometry">
            <mxPoint x="530" y="400.31" as="sourcePoint" />
            <mxPoint x="596.23" y="400" as="targetPoint" />
          </mxGeometry>
        </mxCell>
        <mxCell id="pRqcYYbvUrU53pjMMwpT-105" value="" style="shape=flexArrow;endArrow=classic;html=1;rounded=0;entryX=0;entryY=1;entryDx=0;entryDy=0;fillColor=#b1ddf0;strokeColor=#10739e;" parent="1" edge="1">
          <mxGeometry width="50" height="50" relative="1" as="geometry">
            <mxPoint x="370" y="400.31" as="sourcePoint" />
            <mxPoint x="436.23" y="400" as="targetPoint" />
          </mxGeometry>
        </mxCell>
        <mxCell id="pRqcYYbvUrU53pjMMwpT-106" value="" style="shape=image;verticalLabelPosition=bottom;labelBackgroundColor=default;verticalAlign=top;aspect=fixed;imageAspect=0;image=data:image/png,iVBORw0KGgoAAAANSUhEUgAAAIAAAACACAYAAADDPmHLAAAABHNCSVQICAgIfAhkiAAAAAlwSFlzAAADsQAAA7EB9YPtSQAAABl0RVh0U29mdHdhcmUAd3d3Lmlua3NjYXBlLm9yZ5vuPBoAABjISURBVHic7Z15fBRVtsd/53YHSCLIqoCigAtBZwbZxRG3p6CjBkYMOvoICWInLAHiCBKSOOUkIYCaAAGy0IQGHovgMui4AA4q+lgMiLhAQI2OIDBAAgSz9VLn/ZGA3U26u7q7ujrpl+/nkz84XXXvoevXt+5y7rlACy200EILLbTQQgsttPD/Cwq2A1rBzFSdP28AbGIUEQ0HuBuAa+s/paMATjLkHYDYHDl11hfB9FVLQl4AzEw1S14eC+K/A7hZ4W1HwJQWPnXm60TEgfQv2IS0AGqXZt8os24dwIN9K4H3CMFPtZmcUqauZ02HkBVAzeIFw1nwGwC6+FlUBbEcE56Usl0Nv5oaISmAmrzs+5jEBwDCVCrSQiyPCE9K+Vil8poMISeAmryXezHJnwPorHLRFYLkoW2mpHyvcrlBRQTbATVhZmLi16D+wweAjrIs1jBzSP1oQkoANUvnP+F7h08BhNtrli0YE7Dyg0DICKD+l0kvBb4iygilViBkBFC9ZMFAKB/n+wFHVefNuy3w9WhDyAgAxKO0q0toV1eACRkBEMSdmtVFNFyrugJNyAgAxNdoV5mWdQWW0BEAo5uGtbUIoAmiWc+cwbJWdQWaUBLAKa0qIojjWtUVaPS+3sjMtPiL0gGw0SgiHs7AxfV1IlA5g38E+FNmbJ0x5JYd6rncOHUyylsL9Ap0PfXwCW3qCTxeN5vMTItKDo0lIuXr64SDJOPlpMFRq9RcX0+MTb2GBT1OhPEju7XqP7J7a7WKdgszXopMekHSpLIA45UAcvZ9e6NOFusA+DTdSsAuGRQ/Y3DUYV/uB4AJE2a1bc1hjzFjHED3ouE11usKHZKiInwt1itYlgdETkvZr0llAUaxAPL2ld4ny7wJQEc/6zzL4CdmDL5lm9IbJEkSx3+23EGMcSTTUyBc4XwNEWHmLeHoGq7z0z1PUGn4lJm3hEqkkCIBNDx8NdfX60D00PRBUR+5u2jK+PRbrcTjCIgFPA7zbPd0bXU4+trWt6jkY+MwPR6RNOuNgNahIR4F0NDs74H/v3xnzutkDJk6tO8Re+PUCVJ3i2yNaXjoAzwXQwcJvNqil03LR9x2pubUjzsA3KGyrxfZGT5l1p2h8usHPIwCmJkW7y1dB/UfPgBcaRO8QmK++/zY51rXRkY8wkyxVpv1QSIPoxPGMQh6kwnFhcUZBy6ajUagdtGCOFnHXwCXvyb8ocrCWHu09rUZIfTwAQ8twMLPDz5BRBsC6cCpkgMfl+/5ZlBj73UnzgN4mwRW5xdn/guAywfREBL2LoA2avhoZaDwSDV+uGCzMfG4wpVZ69UotyngUgANv/5SBHiJta7iHH7c8B6YG32eNjA+YtCaarnmjTVrXqlSWu6ezOzEG9tSfrjOvwnCKgvDVFaDHy7YLvkUSiJw+e0s2ndoIGTs1cKJf7+5FdUnTtubSsD8P2FCXp+3Mvu0q/tcERMTo+sU2WdX59Zi8Lje4egR6fOE507jd3XrD54z58LxtRQyInD5rmUbjybSZno9skc3VB8/3eh73Rc6R/Z5joHBZ+pkLDxUhUGd9fhzj/DjbXTorrCIw2BKDZ86881pRJw4Pv0UmNfaiUBHTGsS4lPR3EXg8gkvLjn0EQP3aOGErbrm611Lsvtv2rTJ5vlq90wcl9YrTIevGYi8ZCRszC/OeLJ22fw/siweBngYCDcA6ATABtAxgE8wYweI3m5sa1ji+PSxgIMIgBBoCVy3AIRrXHez1EUXER6pxsMHQHqBIoeHD1RYdfK0hqHbZw1/XlOwKmNj4vh0hFpL4PrlqO36+tVqFJIYn2YA4X57GzMlG41z/6NG+QWrMjYC9DQYVjvzRRH8RY06tMZd70jL8a7fy9JTJ0jdmTHP0cr/KlyVscbfsu0JNRG4++K1XPI8528BFtm6lID2F/9NQBWJMAMCIORQEoE7AfyimRfAEc+XuCYhPvUvBIy2tzHR7PxiKWC7ekNFBC4FwIRPtXKCwZ/7eu+U2JROxLTQyby76/W6ZX665ZFQEIFrAYA3a+XEyY8+bztu3PORnq+8HJvQLQJwlZ2pjsn2jCRJmsTtuRPBpLj0p7TwwR88TQUfAtAnkA6Yz1WibN0/wTKfAWFpmEWfk7dWqlRy76TYOQ+xEO/Z2wicmm/KmhsYb13jap6AQLH5pox1WvujFJctABExE6UH2oEz+76tXwcgdAbwN4ve+kNiXJqU9LTUzt19SU9L7ViIQifzV7ZWp18OnLeucdUSMHh1U24J3A6/pg/s8zqAPYGqvPZUubXy8I+ORoVCsOit8wD0uGRgWIlpQlFRkSVQ/nqiOYrA42R/7q5DPYUen8P/VCvOnD1/8sS9J97Y/qAMzLYfwjnAuOzVkBCbPowEfwYHAdO8AlNGiqvKGKCzE5PvZIFHIdNQEN+A+jgHGcBRAk4ysEMm3tylaKFfWcKa0+tA0WrPor2l94J5C9QLCatlcPTFuMAJE2a1bS23mqxICGRbaoHuEzD6/vYRHYmo+vW23E25NZfdJkmi/Pj5cYKRxsCNCv07AqK0jkU5r5OP8wjNRQSKl/tySw7dI4DXUb+A4jOyzWYWev2DjcUDKhMC14Ao3L5IZr63cFXWZXsPTj/73M2ifu5+kI/u7tHZ8FT74lyf5hOagwi8Wu/NLTnSW7BtLQi3+1JZzcnT+GXbLtlyrnJYweosl2N/RUK4CLOxYFXWs87mimdnPMSgjfA3NIxRLguK6VKU4zaA1RVNXQQ+bQzJ23t4DIMzoXCIaD5/wXzm869bnf/uJ4AZYOzt2ks/1NNYXYkQiFHOhCX2fYSKic/9SSZ+kwC1dopYZOYRXYwLP/bl5qYsAr8iPhaXfNufIUYxYzgRuqN+a5gOhAowjjDoc5Z585HCtZEsw2kfAD1TYMooVlJPvRDCNjFopMuLGvoIE6nu7V5663YAV/r+P2uUCpuMoVetyPUpS1hTFYFmO2onxaW9wcBjdqZTbaDvs9AkeVwIejY25Wad0B2AhyBPAjBZX2vtTjaf9zx6YHfH5bl3aNExZGbC/qyBEGIUCMPB1BXghtzGOArgJIAdIN5M/VJ9HrVotjuYiGcQYB/UeVUt2TwmdZIkSeiEzgj7h89cTkyZ7LSK2F9YEcCHDwC3V0yc4XOWMCXzBMxM/GXWWByYdxhClABIA+NugPugPtAlEkAU6qO1XgTTPv5y7mHenx3jS/IqzQSwbGXWUZl5gYOReUrChPR+7u47+W/bZACOKVlITM1flZFuEebrCJjNwDkCcLdOgzkgogz2o+V0J4L8jBeTcSB7N0CvAXyTF8XeDOKNOJC9i7/K7u2NP5rmB2jVrnI+gO/sTDph4yVw8YUaYqXrwOwwr8+gdwtMGRsAoLh4wYV8U+Z8q05/wyBhWd0Zmqz/RJ175jm/soQ1JoIbugvd0//VOgfAED+KHgqZS/hA9n1Kb9BUAHl5eXUM/qu9jQl3TopLb3TpVCdsSwC0tTNV2vS6ROfrVqyQKkYLs9fh474i6+B3ljB7EfTpocOMMW3QNkKVLllHMH/A+7PvUXKx5hlCCk1Z7zDoXXsbg181GF5w6LUnjE+PZfCj9jZimmk0SscaL5kClyHUGWZVsoQVrMrYOCRKzDI80hp6dTc1hwH8upLXQVBSxDDzdAC1dqauZA5LvfgPg0HqTMSvON32Sf6qjOUuCyUO6LK1Y13qJIliZor/U5uYiEDktSB0goy1njqGQRFA0arMH0B41d5GwIzJ49L6AoCwWJfCcfGpRuj0E+Fm+MWeZgxVRGZcN3HiHP8jmQ9kx4ExTAWXXMC346tst6OWoOW8TY5JDq+JjDgIUM/frPwvEC0E4x37a5l4ZuHKLOcWwYHyZ5Mr4dhfCBgWECRLBADUAfwLmMpYcJlgKpPBB4UI+/bq6/CzJElWd+Xwl3O/BRDYfAZAKfqluExoEdSkx5PiUmMa5usvQczlTPTbghNhf9fr9UM8fZnlzyYfhia5goHzICyweExHYwH4qL04AC4DizKK1B1eamhzGyBrFHdJA+i2xlPaBDVNXL4paxPAW+xtDg+fYYWNnvH08AGANIxi/o+s6GsLA6g3CPcTk4GBeQzayMR75Wpr5Yf7zO95LkIlWHY5agl6nkBho2QAjc7gkKC5BaszFCVjYmgXxXwS4gQARXGLLqBrOpMmr6v62lznNg66AJatyTwE4vzLP+GyGtZlKy1HJu2imO8i62MFpswryWztSEyDCDyWgNlMXATGhwCXAe5npbp21PKrJ5ejlkDOmytHhnDujRDotMkk1TZ+w+V0Llq4v8KQfBgc2ChmAr7oaMzZDQD56+adBbCv4c+BpKSk1taqTtcA1t6wUW+ZuDeBegO4Fcw3XxGu5XfvOrl10AWQGJs6BESTnO0MDE2MT3ukYGXmP5WUQwCXg9IB3uj5aj9gylVyWV5eXh2AsoY/BwwGQ5he17MK6oXYecJlaxTUV0BMjNQKRCsAND4PxlgYFycpzvPTsSgnoFHMBHzUwZiz1t9yioqKLESoUMMnZZDLfZ5BFUCnSOscEH5nb2OGfZ6AG8LJ8rzS8ghgnQ1PgVGumpO/USlsmOhrLMDl8Heer1ELdjlCCpoADHEpUQBmO1q5mODYIWSmOYlxUk+l5bYvzi2TBcXAxcjCR6qFkB/1NTjUBT7FGPrIJ64+CIoAJEkSAroVcIzZO0lm2/Nksb0IwH5lLxxs9Wq3T5einI9k5hEqtQRnwWJ0h8JF6mY8Z7ypannukIXLEVJQBHDiJ8sMOGXzZGBK/rp5Z/PXzTtLRHMcbiA8nhCX9qA3dXQxLvxYJ2MIgN1+uLpTyKJ/J+OrivMaK4X6p34JoFTtchuhlAbMdpl0S3MBJMZJPYmdzvdjvF5oyrz0i7j6el0xnB4cAYuTkpK8WjdrX5xb1nF57h1gjgFBeYZy4m/A9GTHa64c3mHFq//2pk6vIEoLWNm/VTLH3adaC4AAS5FTVtDzYJ5hf5EkSTIxTYXj8OUm86/tknyokDsZF77eqSg3Ssg0AEQvAdh+mglmEMwAylmAgI/BLDHJt3fs3r5fJ2POaxTgLebUL+UNBHQGk3ai3+x/uL0icJVfzqT49InM7LSmT/EFpgxTY9cnxqUVAbDf9HEBMvctWJ3l97x/YlyaQ2++wJQZlIWxPeszB93ak3ZFhpO6czKMcuhtQ+n36T+4u0yzFsDw33O6sXNQKLC9wJSxytU9Fp1+NuDQkWsLQfMD4mAQMBikzsVbak1L367TW6yqpjIygzHG08MH/JkJZKbRxq0DZPAohhhO4ItnBgkAFQB+IKJdYPndzRNHfiYmvLgUzB3sSqgmoX8WbsbVK1ZIFZPGp/2NCUvszE8nxqUZC0yZH/vsexPAYHjhSmG2fgDg1h9PyMh7qw6GR1rjinB/GyI+A5kepwFzXA797PG+BWCmUcu3PBFt3FIqA3sBSifwPajfJhYJIBz15+rdxcwvMGjHqML3j1d3uerPTuWkKEnidHUvfT7YMWcxA0skSQr6NLavGAxShDCHvQNg4EXbd7/IyNlUt43Zn5lM2gkWg5U+fMBLAUQbP7gx2rhtDwMbAFIcfME6XddzN92M0/1ugzU8AgTsKa8+slTJvZIkyULwdNi1FATceuIn62XrB82B5JjkcLJY/gnnvQ6MD3+sENF0W8owEGLg3RCxFMAY9Jt9J/VP+ckbfxS3N48u33IfgE3k5+ERZLMhvLIyYcOsJ4u8uS8xLm01gHF2pkoBfZ9lJumkL34EoxNoMBjCyHz1WwR+2OmjnSJCP3LZMunXiwa7rWGPArgLoG4NW8MYwDEAx0G0A7K8uWFOwScUNaOPLt9yHwGqnBnEOh2qO3TIe7Roy9F3DCPfV3qfVS/P1FtFNH7b9NmOYc0EMNFfn7QgJiZGpzNftYadHz5hfxvWP7zQ7uED9TmaAOxt+AsYHl8B0cYPbgSwCeouXbYiYMOfl2/r6/nSeozGuf9h8N/tbQzET4pL9SlXgcZQ58g+hQw84WT/WmezPaBkg2ygcC8AZgKLdf42+41CaGcjeWXMxo2Kt0R06xm2GMDXdibBoKUxMTGBPivOH2hSXOoyBp5xsn8noB+xdHV2IFYuFeNWAKOMW8cCHLgdN4yhdZVXjld6uSRJVgJNgePQcUDniCjnL7fJkBCXNp9BztvZftbp+AFf+y9q4iZdPJNzkxsgZkuSpHg0km/K+BSETfY2Js42GKTO6rvmH4nxaZkEzHQy/0JCf+/SFVmBW2PwApdffHTxtoHeDPV8hnHTvm5/9OqcP6tO/1cw7DtNHYXZ4jHXgJYkxqclg5HqZD4tbHggkEmsvcX1L0+Wo7VygoR3dRmN0jEidooYpsTJcenabRB1Q2J8+lQwcuxtDJyDTCOXrck8FCy/GsNNsmihyg5YJbAPO3vPVIW9Ajgs8QoZvBDB3u0UnzoezIuczJU60Ailexy0xHWuYMhKT9jyGwJ7/arZtEkyC8Y0J/MdCePTxzV6gwYkjk8dw0wr4Pi9VhNR9DJTRkmw/HKHm84XaSYA+DjMXLYqcytADuFORLxgRpyk2U7hiyTEp44C0Xo4RjibSZYfz1+ZoXhuXmuayplBPtcly7ppAKrtTFfXsvVF/11SzqQJafcT0wY4TpZZiBGTv3qu4tnOYOBGANwszgwqWi39DMA5aDRpUuycP/jnkjImx6feARn/gGMKOxsTj89flfm2Fj74g5t5AGo2ZwaFV1XNJ+C3vPMEPQvhMvmUWiTGpg6RmT5wOqeQAUxqLucIuhkFkGa7bQH4fGYQAORuyq1h2TH5FIDhCfGpY/0p1x2TYuf8AYLeh1NSCgY/X2DKdJ3KponhpgWQNdtt277s+3YGg+Qx44I7ClZnvQVih/ctyfTK5MmSf8miGyEhLu0mFmILLuu8ckqhKSun0ZuaKC4F8I5h5H7Ai1BqH9HX1CDi5MkEYbZ+nxCXNj05Jjnc812NI0TYNAB1lwyEa7nK6jYs2lsMsdJ1BGwD0NXpo5cKTFnzGrunKeP2HRlt3BoDDuxu2/bfHUHEKYeTXU8T8GqbqqrFjR0A4YmEuLR5BLxgZzKTwB+Wrcg4kldSehcLjATzcEtVzZ361q0AErCZzdC3Cf8UgvcA9N7ZgX0+kYguCwmfOFG6Nsxq3cFAL6ePFhWYMmc4X98ccN9JYqboFVt3gTE0EJWH/XrB1uWrAzpwo6PAUwTkeCuE+ng760EA1wMAiNBpQN+DV93eXw+FOYQI+B6g7K4/9lk1dizZACApPqWL80kl9XBxgSnLbQazpozHXvLo/Pd7ynoRiDODLoRXnB3R4dA3DwJIBuDqlDCvhZAYl/4kwOtbtW+H7vcPQ/jVvi0UMrBXR2LcD0vWn6wl63Yw+jtdsqZrT32cVmcUBgJFw6ToFR/cC5lUPTOIWIzebHhgC1AfHy/M1qlQUQiz5hq/7HbXkH6itX8uM/OFY1s/O/Hr9z87th5Eb3W9XjdWSQKrpozicfLo5e/fI0P4fWYQGJUEHrPZ8OCHzh+pJYSFJQcfIMa7IFJFsGyz4ei7H6Pq6MmG/wK2tmp7ProhC0izxquJkoeLP+yts9nWAr6dGQRQiZCtf/lHwp/c7ljxRwiLd397C+vEbqicNFKus6DstXdhuVC1vRb6h73JX9SU8X6mjJlGGbeOYUDxmUEAH2FC5sBju9d68770VghXbsyp61BS+r++HmrlidrTFRcqPvmmx/z5CecDUX4w8GuqNNq4rX9DEsLhgN2ZQUA5g74HeLdgvLPZMHKnP/UoFULXuwd+2uF3UT6f6KEEAp6aNrhvs5jmVUJQgye8xZMQej35MNp0CvBKMOHg2YFRv29snqA50qwEcBGDQepMZuvzBCQBiACAiG5dcP1jIzSpX5ZxR/LQvrs0qSzABD1TqC8UFUlnCk2Zs616uTeBcgBUR/Topln9QsD18XXNjGbZAjiTFJ/S5bqnRu9r1b5dD89Xq8In0wf3vUejugJKs2wBnMlbmX26VYd2Ns9XqsWl8/uaPSEhAAAA4yrtKiPnlcBmS+gIANCwBdC0roASSgLQMobxuIZ1BZRQEoBmMYzMLQJocjBpd2KIcJN7t7kROgKAdieGgF3n3m1uhMQ8AFCfU2fx3tJDULxA5TOl0wf3VZzZpKkTMi0AETETpQe8IplVDTINNiHTAgCXWoFdQGBiGAHsnDYo6k5XhzA2R0KmBQDqWwHZiifheN6AWpQT6WND6eEDISYAAEge1vcnED0BdU8MMRNjzLRBN3nMvdvcCDkBAMD0QVEfgcR9zDilQnHlQtBD04b0DZmhnz0hKQAAmD6oz2dMumFg/04Mka0YlDQwartqjjUxQqoT2BjMTHl7D49hsBcxjCglRmrS4Ki3Qu2d70zIC8CexSXf9meIUcwYTnQphhEAjjHjOBF2yCxvTh5yq8+5d1tooYUWWmihhRZaaKGFFpo2/wdRteo+9xW2egAAAABJRU5ErkJggg==;" parent="1" vertex="1">
          <mxGeometry x="810" y="465" width="60" height="60" as="geometry" />
        </mxCell>
        <mxCell id="pRqcYYbvUrU53pjMMwpT-108" value="" style="shape=image;verticalLabelPosition=bottom;labelBackgroundColor=default;verticalAlign=top;aspect=fixed;imageAspect=0;image=data:image/png,iVBORw0KGgoAAAANSUhEUgAAAIAAAACACAYAAADDPmHLAAAABHNCSVQICAgIfAhkiAAAAAlwSFlzAAADdgAAA3YBfdWCzAAAABl0RVh0U29mdHdhcmUAd3d3Lmlua3NjYXBlLm9yZ5vuPBoAAAI1SURBVHic7dwxTltBFEbhf56JlATaFHY24Z7m7YRNsAxvgoptWFHos4nYhWsqZE+KlxqwntAwPudr3F5pjnz1mltqrdFMD2WVZJNkTLJsO8yb9km2Se5zV3fFAGaaHv9Pkh+tRznTIcl6aD3FBdikv8dPppk3BjDf2HqAGUYDmO+z7/zXLA0AzgDgDADOAOAMAM4A4AwAzgDgDADOAOAMAM4A4AwAzgDgDADOAOAMAM4A4AwAzgDgDADOAOAMAM4A4AwAzgDgDADOAOAMAM4A4AwAzgDgDADOAOAMAO6q9QDv8utrT3f4uvL5A5gev8c7fF3oYQX0eoevCz0EMLYe4JL1EIA7/wP1EIA+kAHAGQCcAcAZAJwBwBkAnAHAGQCcAcAZAJwBwBkAnAHAGQCcAcAZAJwBwBkAnAHAGQCcAcAZAJwBwBkAnAHAGQCcAcAZAJwBwBkAnAHAGQCcAcAZANx0Ju7pepXTaZNax3iTB+UqT9erHI/e4YMacjp5hw9s+P+3L6gh7nw0vwLgDADOAOAMAM4A4AwAzgDgDADOAOAMAM4A4AwAzgDgDADOAOAMAM4A4AwAzgDgDADOAOAMAM4A4AwAzgDgDADOAOAMAM4A4AwAzgDgDADOAOAMAM4A4AwAzgDgDADOAOCGJPvWQ3RtUVpPMMd+SCnb1lN07VvXAWxL/f3dY9FzHGvy92X67cshyXrI7fMui8U6pTzGdXC+RUl+fkluhl7WwT7JY5J17uruH0CaO+2zhAoAAAAAAElFTkSuQmCC;" parent="1" vertex="1">
          <mxGeometry x="800" y="230" width="40" height="40" as="geometry" />
        </mxCell>
        <mxCell id="pRqcYYbvUrU53pjMMwpT-109" value="" style="shape=image;verticalLabelPosition=bottom;labelBackgroundColor=default;verticalAlign=top;aspect=fixed;imageAspect=0;image=data:image/png,iVBORw0KGgoAAAANSUhEUgAAAIAAAACACAYAAADDPmHLAAAACXBIWXMAAAOwAAADsAEnxA+tAAAAGXRFWHRTb2Z0d2FyZQB3d3cuaW5rc2NhcGUub3Jnm+48GgAAFcVJREFUeJztnXmcVNWVx7/nVVdXL+ygdAQUREHFfYkQkA/uipGoE40xOknUCRPFBSS4ZGbSGf2ooEDcl2jQYGKiMZNxIhC3EFQWUaIYm0VlERBZGui9u6rePfNHd5uGrrd1vapuuuv3+dwPH+qde+/pd84995xz77sXcsghhxxy6KKQ9magPVFaqvnda7hChAuBwUC9KB8Zi1/fMl0WtzN7WUGXVYBZt+oxKC8Bh6ckUJ4jyY+mzJa67HKWXXRJBZh1mx6GYRnQx4N0XmURF5aWiskGX+0Bq70ZaBfYPIG38AHG96zh6kyz057ocgow61Y9BuEMv/Qq3JxJftobXU4BxDAuYJURD96uB2SCl46AvPbqePZUHaURLkUbnTBVVovw4pQZ8m4m+1WLfmiwOvE4BwA7MsJQOyPrCnDvrdozqjyjcFFLQYjwTWDqrGn6QgKuvXWGVGWif1XKg3q+KuzMBC8dAVmdAp4o1aJ85XWBi1zILovCggdv0FgmeLCURYEqCGU/uV+2Z4KXjoCsKkB1DT8DTvZB+o1EIbdngofJ98kHsUI+8Euv8GAm+OgoyJoCzJqshSJc55de4KbSUs0Pm4916/S0MRcxLOqjZYHXBq3jqbB56EjImgJIjFOBbgGq9Ope58ta+Ma6dXoaFvO696Jo9AQo7EbchfwP+UVcctmLYofJQ0dD1pxAVUoCVzJ8Laz+m4WPNiphrwP4cNhoLvjgVSaIMgFlMEKDCH9HmDv5XnkzrL47MrIXBRj2BE08WxF2h9H1vsIHPkzEOevMM2Un8FhTCRWPlGq3eDUjbeFI1BxhWTIEpY9CMVAExBFqUHYh+rmqtVaE1cawNJtOZ/YUIMm7REkG6LMhUsN76XbrJPzhwyX00G7mFB2GZa4APau+2nwdiEpTqKsmRfJB//mvYEDBAp051f5YhDfUtl64ZVZmVyWzuhj00E/1j4kEF/uhVeFXt0yXa9Lpb906HYvFK5kUfmmp5hdX21eJci0wMqx2W+BTUXlG1HpsymzZFXbjWVOAzz/Xgyr38NaiP3Jofa07bWE3GPVNZh5/okxta3+ZFn5pqRZ0q0pMVCNTEQaG0aYHqgQeiyfy7r/jIQktK5kVBVi3Tvur8KbAUZW7YNl8TE1l6gikey84dTx06wkK04cOkdva0F9GhX/fzYkzEH0EOCKM9gJij0DpwZujD4cRoWRcAVoKv+mniurdTHj9eU5AuIzGDRkqsBbhhQt+yIi8GBOb6wdVgkwKf/bN2itB/HHgO+m2FQKWY/R70x4s+CSdRjKqAKmEL3DukCGyzKmOqsr69TxMi6SRwoyhQ+RWH/1lTPj33Bg/ybLM74Gh6bYVIqoEmTjtF7Hn29pAxhSgLcJvhpMSzH2Wn/Wo5QcKF4lyCEIC5UPL4rkJE6nLlPDvvbH2chF5FkgrM5lfALECIUI1miynIdGT+niPRvuXBgTu/ckDBXcIEnCdM0MKkI7wm7GvElTshHdepiLeQM9U9CUHkzzpbPKaUrwhCr/mepAHCZg1jRUKhxxucfDhFiUDLfocKBQUNb7uLSvmMNCaBEAiWcTuykPZvnsEG7eexsYvx1JVc1BgPhXm9qkvvGbik5IIUi90BVi/XksMvJGO8JvRrATVlVy36CWIN7jT9/0ajL6QlbbNmWEI/+4bam8WdHaQOoOHRzhuZB5DR0TIi6am+WLFHAZGJqV8pmrx+bZRfPTpFZStuxhjHBpJWVd/F+9X/L0gexhDVYD167VE4U3gyKaf2iz8Zqiq/Go6myp2McAPfX6M/5x0p9zV1v6ace+k6isUmYvPkX/oURHGnB+l/0Bv8q3vz2Fg3g2edJU1A1my8kY+WHsVqhE/bKDCY3c8VBxk0S0cZEL4ALNu1REo/whQZcOUGTIknT7vvqHyNIz1BuA5/Hr0Es78dozDRvgTEMDW959hUOQm3/Tbdh3N/CUz2LrzeL9VJt/xSLdf+CEMZTXQQfjnpSt8AIUxAasMnjlFB7W1v9JrKvqokedUNaqquJVDj4pw1dRCho6IoI28+iogoJbv0r93Gf96/kWMOW4mYLvy1FRm3H195Sg/f2/aCuAi/KXptg0ghr6BK+XTr6395cVkLkYPRhW3cuoZUS65poDCIvEv+eZiAGMFKpYaTjvmASaMuYmI1eDKG6pRNfy29IbyHp5/r5+XUlqqeT1rOBalj1rsqSxiZWmpxDMtfAC12BE0uJEG2rSadtfEiu9idLxXd+MmFHDKGfmNozlw4AVqBPA/ZbTEiINfoSi6hxf++iRJ23XX3OC8eN7PgcluRK4+wKzJWkg+t6FcD3uNxIpYIb8567ucGY0xvPm3sIUPMPN2HSY2awJU+WTKDBkWtJ/pV+/oHo9GV4G7sznqnBhjxhcEbX4vfPnerzmEaWm18cnm03nxbw9j1HUM25bRk3/6y96OW+Acp4B7btPemsffUP4LWpnhng11XLfoTwxvWtjJiPABbrlH1gLzAlSZ1ZZ+6vOit6rqALe5dfjxeYw+r8BrdvAsGAETSascftAizjhhppcvELFhhtvf7agAMcNcEU5xq1y1C5b9BdtOcn4mhN8MY3MdeJt1gdcqi4Lv4Su9obyHqLneTWq9+wlnf6cIbcOU36poMCfQqYwc9hzDB7zpoW169l3/Vv4Np789pQLMvk3PAC7w8/J2f0nk5Sczuxw6daZstGAs8LETjcJvioq4qLRUkkHbt+p0kqr2chxJKGdfVkR+TNIe/Y0ySd8CYCKgFhd8/U5i0QpXS2CrOi6mpVQANVwe5AWKBKNvC26eIWsqizhe4EoRXhR4H3gHeFyF0bfMkCsnlorHToPWUFSM6rVuL/DIk/IZdFg0hKHfVIwEjgKcSnG0gtOPedRjKuCCu35YnjI0dvIgjnL43ektBqNvI5pG92+aSij476t3jkMZ4uTOiwWjzy1sHLkhQbVJAULCSUNeZnHZVeypcdxDa9kWVwDTWz1wqhCIA2ljTNMBoEa/5z76Y/ToFyzR46egkdCKJcroI59ztQLGmCtT/f1Ogv404HtcG5C+w8Conuv24o79Rvpef+ooIJwpoLkcO+hVopFaNyU4uvTa8la+WmoFEF4K+B6D0ncI/MfVW4aDDnSSVK++FiWHRENXAA0hDNy35FsJjhqwyLVjO5FsdS5CSgWYPJ2XgSV+XqLCP4r38FyasmgXWAkZ6zb6h46INWbKwrb/qqFbAIzFsJKlHs6gGdfqHaR6MYIoCS4V+Mz1DQpb8pRLgm5C6ChQONrthQ0cFg1f9gBYoVsATIQh/T4CdV4sQnXEvu/A0dmbMlu2RCOcCjwN7Btb2yi/TRpOvuk+SWtTYnvCGB3uZjJLDskP3/wrYCCMRNC+pShaQ99uX7h0/lXa/iu4JpIn3SPlwLWzJus0jTLGghI17LDhnc7xzbwerpr6SUGxRWGxhdPzdGAINwxsib7Fm9lR6bSlTHve8d1t/e9+vv+25l98rQY2fZHychgMdiQo6nhSWI8+kYwIv7HjJicwA+hT/CXqskSp2L2BYArQaaHq+Ll6rFDastLrD837ATKAgkgdbpqrVrJ7y/93WQUo/cH6goYG57XUaBQypQH1iaKMWYBYpL7R4XOCak4BANgwOKklGx0f27ZmZArYsDrJoiXnsqVXNecNfST09m2T56oAgrVXxJYZO7QfoHShJFW1zilkijeY0L3/9auSLHrZQqwIZZWXseCTSaGHgvXxItdcgNFkZcv30HUtAIBqFVCY6lFNZTJUC7BhVYK3X4kg0jjmBCirvhT5TDl3yJOh9VNd38PVBzBiV7f8f5dWAFW2gB6Y6tme7QmSthKJpL9zfuOq5F7Cb4YAH1dfhq6zOG9wOEqwvarEbQowSS34ouUPXXYKAEDNGidTmUwa9mxPpJ32W/9xgrdfkVbCb4YAZTXfZsH6H5HuqqCaPL6sLHGeAox+PvvFQXsdf9+lLYAxulpcBvimtXX06d/270E3rkmweL6FiLvHL0BZ7bfR9RbnH/J0m/v7snIAtQ1FOIUvSuvNtV3aAoiY5W4O08bVtW12+NZ9nOCdP3sL/ytegFV1l7Bg4zVtdgA/2THc1QEUY1p9qNOlLUCNlVxUmMxL4PAJ2GcfVVNfZ4gVBhsnG9ckWLqg0dsPAgHK6i7BbBDGH/xsoLoAf998gmsIaGO1OvquS1uAR18cUY3qcqdhbCcMa9+vChbqlcVZ8kpw4TdDgNXxi1nw+fcDLQVvqyphU8UAR8ZUtTZZT6ud211aAQBU9X/czOZ7b5RjjD/hb1iVYNmCSJuF3wwByuIXM2/z9307gAs/G+tq/kFfeWj+4a0+sO/yCmBrcq6qJp1eXPnWBj5ZUenp7W8oi7OsDWbfCY2WYALzN13pOfp31fTlvS3HuSqAKnNT9dPlFeCBl4/ZhuqrbkN70R+3NWYGSS3/jWvivPtq+iN/XwjCquQE5m2+0tX5+99V52IbcTNP22v61yxI1UeXVwAAW5nlNnoqyuMsnbfDcc5fGoLZd4IgrLa/yfwtl6cc/R9vG87KbcPczb8xDzz55Mkpd23lFAB48M8j3lBlsdv8vvzVnWwoq97rt41r4rz3WgQrQ8JvhiCsMhcy74vL95r3K+t78Puy8z18E6nQaPJRp7ZzCtAEY/Tnbm9SjbJgzmYqdsabHL4G3v1L5kb+vhCE1XoB87+4FIxFIpnPnA+/RWV9kZd3ev8v/nTCHud2c/gKN43/8CVVucSNpveBMUZ9axD/WJyf8ZGfCopyhM5j6/Y4K7cf5kX+WWVd96OfWTik3okgpwAtcN05Hw2KWKYMj4st8gsK6D9kCHlR/yd4hQZVtm/aRM0ex0H9T1KR8Q/PP3a+G01uCmiBR189ZpOq3ugV8Mfr6tj66afE6x0HVkZgJ5NsXbeOmt27PZMSovq4l/AhpwCt8PBfjp+jqs+6x9RKoqGBLWvXUllenrm9gy1QV13NljVrqKuq8oj3FVXzUaSydoqfdrv0WoATCrCur8MegccNZ2psdmz6nOrduzhg0CCisfSOjkkFO5mkfOsXVPtXtB0qesnsJd/wdet5zgdwwI/GvdcvL0/eRlp/TJESInTv3Zve/UvIL0hfEexkkj3bt1OxYwfG+D4VvlaMnPXIGyf6+qwPcgrgiknnLBti7MibCIP91hEgVtyN7n37UNyz51eHF/uBsW1qqyqpKt9FbWUFrrt7W6NG0Ysee/2U14NUyimAB64b926JRmQ+4PuYzpbIjxUQKy4iGisgGothRSysSAS1DcYYkvE48YZ6GupqidfUuX7U4YJdajHh8ddOeSdoxawqgL7f7UjE+DtORlkuJ9X+OcMs+cLN4/7eqz6S+B3Kue3NSwqsNsa6+MmFJ69uS+XsKsCKwn9B5Q8+yZ+Qk2r/PaMMBYLKxHHLbhSR+/BxhnA2oKLPRUzdjx9deHq1N3VqZDcKsCP+Va7DTU6iTyzkgR+PW7rMNN4z2KYpISRsFZjyxF9H/i7dhrKfB1DxV0yH0wAAHls4cunXqDtFVW9S1XLvmDzU0qCqs/PrOOLxhekLHzqyBejAKF14ehJ48KpzPny6oL7mWoFpQPBrPvyjAXjWWNadTy0cuTnMhrOcCIo0pio7Cea+elwN8MAN5897vLaq+zm9D+w/rap819eNsdO+9VwQivv0XttQUzenrqH66TlvjQ3trsCWyH4m0O8FSfuRpXho/vgG4P9mTdOn9TA1dkNieeXuXQ3Vu8pLaiurBqka12O9AQSxY0WFW7r37ftF9959Tay46AhgWER56ab7wrsocl9keQrIA7/X2eynhkKQgrxY/il9SkroU1ICYFDdkkwkd6jadclkMoFRRcSKRCIRiUTyo5FoPyJyEHBwU8kasm8BMnQwQgeGhciAvPzoAIgS9bQF2UWWLQDg9i1WDllHOziBPklzepIVdNwoYD/1AfY3ZFcBkgSYArJjAnRFtwNQ2/1AzGaIrJITa091fAxrFA4IjTmospOEGvfvi45rAbKFuFrkWd29CQF13ytoIlyDzXQLBgGoakRt9e32iSUJsRpPXVWlwgj3Tp0tvjZ2tBXtkAfwGQVk0wcIiaem+40ubv7/xDGLzzOinvvyvmIDvfOpt8b8l1/6MNAOqWC/PkAWNcB3aNr5PNNcHoBiMIGvGeo0yC0Ggf8poBOi4zqB2VSUDmeVsoeOuxjkoSf6frcjsezevtrKr1spI3DeNZOzAFlCICfQ47mY+zEy3ldbtYWnQt27KZ9VA9GcAmQPYZlbO4L/dKEFOIXTAZzAjui/pImOawG8XraxAuwv9JpPfCplB8thhYGOmwjyetlq+ReIl9XJ5QGyhRBXAzVAW54eZc4HyA5s8D2KvIRrBzicwfLo068F6HwGoANbAC8EcSaNW6fFYPzeetf5NMCXAuiKop+D+tjpKnE5sfZnjo+DOIFeCHLlipuu1ADR7B/10lHgzwKo/AQk5cUK+6AWcFaAxrZ8dekdBQQQmh2WE9j54E8B7DxCsd1hJoICfWbm0ZhvBeh8caA/BQhzhITlcWuAdQUv/nNRgAfssHzFEHcEBckDuBIGcQI7H3xagJCcJBtwuDqlFbzMe5hhoOacQHeEZgHywtsVHGRassPyATof2sEChBRLGwvfXqAbWQ2Ql1MAdwQxt64I0QcwEfxnFXNOoBN8WgC/U4APgYS1KzjIWoBrW93AxP210/miwCxbgLDzAH7hGQb6bavzaUDIFsBPWyGZ20B+Sc4JdEI7WIBwmmpUAJ8jMqzVwE6I7EYBEOJaQJAw0ONQCt+bVLrqFBBqJtAnaahrAS4KnAsDfSC0PECQjZweCJIKVjcLUAya+zLIHaFZAAJ88+eVvrUCTCceChzmFLefIfsWIKxdwXYU3yYgtE2hnQ9ZzgQS3q5gI4QWUuQygR4ILQ8Q5IgYr9CtHTaFBoRBkoF8HhXfN0OEhexagCT+l4O9EGhLWDs5gWpvDbL4ZYluyQwjLn36ojJ5/osrIk3Om4/ixZod8X+9utvp7jW43su7dwlmCX/5zugyBL9CNVYkEui2jzDQDj6A3xU8P1GAzz6NRyIoY06gqLL4HkEf9qSE3z6+cNSGDDHiCJ8WwO8I8VAUO4AF8DouXoPw5HG/g1+e2uAsPrVo1KPA8x4MrCQWmxS48RCQ0gLoe717kt9iWCxW8TnaRFf2dP5mf3lNMbU+b9SykjHXtt5KRH0LpFtFd8e2Pv2sJ1uG+mtHiOzVTmU0KWN2VnlU0gFv6ZVbxi5ZgertQJ8WD+Oi+sukcvuvXj/Zo53MYK9hpm/3605h7VvAce3BzH6KBZxYe4EInqdgXzri4/ye/XafKkYGgOwuiFtLHlo2sjIbTDphbwVYUTgKlcXtxcx+izyrvxxXvb292WgL9p4CKuqW06NoDjCWzvghXOgQG/TF/VX4OeSQQw45dGn8P1uFSpiEM8qiAAAAAElFTkSuQmCC;" parent="1" vertex="1">
          <mxGeometry x="850" y="230" width="40" height="40" as="geometry" />
        </mxCell>
        <mxCell id="pRqcYYbvUrU53pjMMwpT-110" value="BI &amp;amp; Reporting" style="text;html=1;align=center;verticalAlign=middle;whiteSpace=wrap;rounded=0;fontFamily=Lucida Console;" parent="1" vertex="1">
          <mxGeometry x="760" y="280" width="160" height="30" as="geometry" />
        </mxCell>
        <mxCell id="pRqcYYbvUrU53pjMMwpT-111" value="Machine learning" style="text;html=1;align=center;verticalAlign=middle;whiteSpace=wrap;rounded=0;fontFamily=Lucida Console;" parent="1" vertex="1">
          <mxGeometry x="760" y="540" width="160" height="30" as="geometry" />
        </mxCell>
        <mxCell id="pRqcYYbvUrU53pjMMwpT-113" value="&lt;i&gt;&lt;font face=&quot;Tahoma&quot;&gt;PostgreSQL&lt;/font&gt;&lt;/i&gt;" style="text;html=1;align=center;verticalAlign=middle;whiteSpace=wrap;rounded=0;labelBorderColor=none;textShadow=1;" parent="1" vertex="1">
          <mxGeometry x="263" y="130" width="60" height="30" as="geometry" />
        </mxCell>
        <mxCell id="pRqcYYbvUrU53pjMMwpT-114" value="" style="image;aspect=fixed;html=1;points=[];align=center;fontSize=12;image=img/lib/azure2/databases/Azure_Database_PostgreSQL_Server.svg;" parent="1" vertex="1">
          <mxGeometry x="237.5" y="130" width="22.5" height="30" as="geometry" />
        </mxCell>
        <mxCell id="pRqcYYbvUrU53pjMMwpT-115" value="" style="shape=image;verticalLabelPosition=bottom;labelBackgroundColor=default;verticalAlign=top;aspect=fixed;imageAspect=0;image=data:image/png,iVBORw0KGgoAAAANSUhEUgAAAIAAAACACAYAAADDPmHLAAAACXBIWXMAAAOwAAADsAEnxA+tAAAAGXRFWHRTb2Z0d2FyZQB3d3cuaW5rc2NhcGUub3Jnm+48GgAADvVJREFUeJztnX18FNW5x39ndpfs5m2BEENCEoHU4AtYUEEoUlrkTUTvVQELt6KUfigt1StUTYRbL6IgkUJrL97L594L1tpSIKVCtiVoFdFbMK2GRkOIvARKCIQEAyQhyWZ35pz7BxoZNtmZ2Z3ZmWXO978588xznuz55ZwzZ84LwOFw7AuJ5uHJk5cOpVT8J8bInYQgE0BfneLihOc8Y6gXBJSJIna+915RVaSOIhLA5MmFt1PKigDcHWnGHF15h1JasGfPmgNaH3RofWDixMIFjLE3AXxN67McwxhMCPl+Xt64zuPH/7JPy4OaBDBpUkERgNUABC3PcWKCAGDi4MF3uY8f3/eu2odUC+Duu595FCBrIgqNE0vuyssbe/z48X2fqjFW1Qe4997CPp2drAZAn6hC48SKi4wJX3v33ZealAydarwFAqwQYQqfABjjaEWOEAAYgx8OfESTcYa6QmxTPAF8I/8Mkt0BAMCFNjf2HR6AzmBoZRTIYfDfzMCcDIQS9DpJ4D4U1YtLF4xRdHQ0g9KgLv6iRRCccLu9EATN3bLu6E2I9DSAQiVDNQIgAOaEM1joOosHnedlaR1MwA86B6Oe9epKS3BJWDv3fWT2viSznXTrSTy7eZwszT+EoaFADGmk+r7hQMo70XdBmppOIBBoi9qPnjidjUhPzwchenSxyHcBPAuAhbNSzGnixMLhjCE7nM04R2tImodQjBTkBT0wvTmk8AFgaM7n8CZ2ytI6bqfd9lDaR1KlkBWhVLRc4QOAKAYQDPr1cjdgypSCW5WMFAXAGPKVbGppr+7T4ZZdN7YkISCGlurFNjcu+eU+XPXdV/Wu+uj/OwTBAUFQ1frFFEIEOJ3d/5aRIIrsBiUbFb8CzVDqK64NZmE+GpErXG7X/Yxgr5iKCilRZnfhUgJW7xiF++44jlTP5f/4pksebN0/BBKV55H8gQDRC/iHUsAFMAoknBTQe5su1SPS0gaipaUBjIk6+IseQpxISkrTW5hZSgaKuQmC4GEsbDOCc8yF1YEBqiL6qKY/Pqrpr2woAb13CMAOY4YcXK5EpKUNMsS3VRAEwaNoE4tAONaFC8DmcAHYHC4Am6PiNZCFDudx4gJKe3g/vwLFt4DGxqMOgdcTcQmlyv/gigKQpA6/aI1XZY5GCIHisCL/37Y5XAA2hwvA5nAB2BwuAJvDBWBzuABsDheAzeECsDlcADaHC8DmcAHYHC4Am2O9udE90Ldvb9x//wSMGTMC/fv3QzAo4uTJM9i796/YvfsDBIPhP1nOnj0dM2dORVJSYsi9jo5OnDnTgH37DsDn24OWltC1CwAwa9Y0zJp1D1JSkjTFLooSPv30MF56aUOPvs1CcZ3VLbfcU8AYVscimJ6YM+c+PPnkY0hK6n6S66lT9Vi6dB0OHOh+n4ShQ/OxZcvPQYjysrLm5lYUFf03du6UL7DNy8vFzp3/pcpHT/z612+iqOh/In5eK4SgsKqqtCicjeWbgKeemo9ly37YY+EDQE5OJjZtegnjx4/q9v6NNw5SXXBebwpWrfoJFix4WJaemZkeVeEDQFbWdVE9bwSWFsC0aeMxb95DqmxdLifWrCnAgAEZIfciWWv3xBNzMXbs7V3X5eVVqK09o9nPl0gSRUnJnoifNwrL9gGcTieWLPleSPr+/QdQVlYBj8eNqVO/iUGDvlq2mJTkwaJF/4KlS9eF9X3hQgteeeX1rmuPx43x40di9OjhXWmEEDz99Pexf/8BMMbQ0eHHrFn/irFjb0NKSrLMX2HhArjdCV3XxcWlqKo61nUtSRIqKw/j6NGT6n+AGGFZAYwcOQyZmemytHXrNmHjxt93XW/YsAXr1z+HcePu6EqbPPkurFixHn5/oEffbW3tKC4ulaW98cYOLF48D/Pnz+hKu+GG63HTTXk4dOhyYba2tmH37v8L8bdkyTyZAD78sAJvvRVqZ0Us2wQMH36T7PrEiTps2rRdliaKIl544VVZmsfjRn6+9iVfjDG8+upvQnrpX//6jZp9xROWFUBaWm/ZdU1NLbpbo3j6dAPa2ztkaenpke1W19kZwIkTdbK0fv2u7U1RLCsAp1O+jFySpB5tRVF+z+mMrGUjhIT01JubrfXerjeWFYAZPPDApJDa47PPakyKJjZYthN4Nampybjllu63JhQ0rlxxuVwyX4mJHnzrW3fikUf+WWZ37tx5lJdHvAlnXBA3AhgzZgTGjBmhi6+MjDRs2/ZLRbv1638Ttum5FuBNQA/s2vU+tm9/y+wwDCduaoBYQSnD5s0lePnl/+32reNagwvgCxoamrB//wFs3uzrGvixA3EjgD17yrBsWfdDvG+//ZqmT7SnTzdgxozHu679/k4EAtbYMDLWxI0AgsFgj9/StVbVjDHLfZc3C94JtDlcADaHC8DmcAHYnLjpBFqBnJxMTJ06LuSNIyFBvhfT9Onflg01i6KEysojeO+9spjEqQUuAJX06ZOKrVt/Aa83RdF2woTRAEaHpD///Hps27bLgOgix7JNwNWfeLV8Dr7a9urrq+3VMGzYEFWFH44rZy5ZBcsKoLLysOy6ouIzVbaBQBBVVUdl9w8ePAJKvxor+OSTas3x1NTUKq49UKK62nqfli3bBJSU7IHXm4JRo27F3/9ejS1b/tij7U9/+gssXDgb113XF1u3lqK+/pzs/pEj/8DixStx330TUFd3Fhs2/E5zPKdPN2DRoucxY8YUzQtDJImioqIaGzcWa87XaOJiYQgnMq6JhSEcY+ECsDlcADaHC8DmcAHYHC4Am8MFYHO4AGwOF4DN4QKwOVwANocLwOZwAdgcy34OBgFYnhvIcAHngiDH/AA1Oyg5yQJwawJBikP77mHNEkOFn8Fv8uozawpgUALEwiywwe6uJFIbgOPlMyCHO8I8GDvmegU8kSbAE8XOca0UWNNEsb3FPGVbrglgAxMQXHu9rPABgOX2grgmF2yI4onohvNwKkFBv+gKHwBSBGBFuoApyeYVg7UEkOaC+GIOkOLo/r5HgLgyB8hRPBHVMBwAftxX35/tCZ39acE6AkgSIK7Kvtzmh8PrQHBlDlhfc1qvXBdB3wja/HAMdEF3n2qxhgCcBOK/Z4dU+z2S2QvS6hwgqYeawkASBWN6bYnEnN6g+QIQAOnZLLAR2iZaskFuiMsHAC5z/nOuFUwXgPSDDNBvpkb0LBueBOnpTBVTWzk9YaoA6Ow00Acj29Sxy8e3vaDzrbcLd7xgmgDohFRI8/QpOOnhNNCHohOSXTFFAJer7ixdq25pQeRNiZ2JuQBYvhviimzAqXPD/WVn8jZtnUm7E1MBsEwXpBdzAY9B2ToJxOeywfISlG05AGIpAK8D4qpcsD4Gv7snXR4tZEoDShwAMRIASyAQV+QA2TEawk1zQVoZZkiZ04XxAnAQSM9lg90c24847PoEiKtywBL4IEE4jBUAAaTFmWCjkpVtDYDd6AH9t2zApHH2eMBQAUjzrgOd4jUyC0Xo6GRIj4eeJMa5jGECoNN6g85OM8q9Jui9fUAftkYsVsMQAbBMF+iP+hvhOmKkeelgg/jr4dUYIgB6t9d6nS8HAZ1kbnNkRYxpArLMm7ETDmbRuMzEGAG0WPOYFdJqzbjMxBABCB+2GuE2asg+a8ZlJoYIgHzSDuHPzUa4jhhh/yUIZfyMgKsxbGalY2098LkI+kAfwG3ivJMAheC7CMfGRvNisDDGTa2VGBybGuHY/DlYbi8g+atxeZbmhPRMlu5ZOn55FuT0FYdGt1GQU51Au/aFF/0cwKxUAUMSCJKumLCZbNCo4uoMB/xX7GZ6iRFUdTIUtzBclIybMGr83Go/BTnil6dlGvOljhzuCM0rAr6RSPBKhoBE4cvCNv6VdoSbhOQzKYngMS/DD89SfGrQGjIVdTOx1WlKaQ5gXYbjisI3l94Ogv/o74ho/aGaslMUAGOsIYKc45aZqQJSTJ8rLaefA5gWwUQnSukZJRvFP5UQ/EN71vHLUIuOFt+coF2VDoejVslG0avb3fg3ABc05x6nBC26yEDUforp+X792v6mZKQogPLy8iCAHVpzj1fKInhjiAV/7dAsgB179+5VPOBAVb0iSdILADq1RhCPvNnKcCxgrTODK/wM77RriikgCFilxlCVAA4ffvsEY3hZSwTxSoABPz5L0WSRzwYNIvBUgwSqTZOrDx4sVXU8ieqeRXX1ncsB+DSFEaecCjL8qF5Cu8ZfXW9aJYaF9RLqtZ1UU3Lo0J3PqzXW0LVcTgMBzGQMr2sKJ0452MnwkwYKsyqCTgYsOktxRENzxBj5XUtL8neA5ao7MpreLY4dK+2sri59DCDfIwSntTwbj3zQzrCskSLW9QBlQEGDhHL1o391hLB51dW75tTVFWvaRCmiIY9Dh3a95nY78xnDowC2fyGG6I7Usii+Vor152P7ZlDURPHntrCFL37xm/+eMTK3pSU5v6pq968iyUvHl97lwrBhH6macyW92H9g8A7vAf3yvgyt9k9IXHyyQm+/AFCWK6xOFLDACN9X0kqxdmwtXRnOprJyZLOWaj4cpox65DcsHsxEovshepSQO2qy1pbr7RcA2MyZDvj92wA8aIR/AAAhv0VJySMEsWt1LDbqbV1IcbEEt/u7AP5iUBalaGl5LJaFD3ABaIIUF3fA7Z4OoFJn1x/D7Z5FVIzc6Q0XgEZIcXEzRHEagFM6uawBIdNJcbEp89W4ACKAlJbWgdJpiP4j2TlI0jRSUmLaJ3cugAghf/rTQQAPIPJvJO0A7ie7dh3RLyrtcAFEAfH53gcwF9r3MQ+CkIeIz1dmQFiaMEUAAmWGjKwQZozfsHn6fNsAPK7hEQZgASkp2W1QSJowRQCXRNIAIKBoqA0qEKJXx0wTxOf7TwA/U2n+LPH5fmVgOJowRQB1OT/vAMgf9PTJGHvrSNbaz/X0qQmf7xlA4UMZIRuIzxf2OPdYY1ofQHSKTwLsqE7uaqlAF+rkKyIIwOB2LwCwsweT13HbbYtiGZMaTJ0AN7imwOt0i0sYY/cA0L6DA8FFAva2wAI/+yz71Sb9I9QOW75cwMcfPwpgDggZAOAkgNfg8xXHepSPw+FwwvP/rnq1qUHLEYwAAAAASUVORK5CYII=;" parent="1" vertex="1">
          <mxGeometry x="815.16" y="351.31" width="49.69" height="49.69" as="geometry" />
        </mxCell>
        <mxCell id="pRqcYYbvUrU53pjMMwpT-116" value="Backend API&#39;s" style="text;html=1;align=center;verticalAlign=middle;whiteSpace=wrap;rounded=0;fontFamily=Lucida Console;" parent="1" vertex="1">
          <mxGeometry x="760" y="410" width="160" height="30" as="geometry" />
        </mxCell>
        <mxCell id="pRqcYYbvUrU53pjMMwpT-119" value="&lt;h1&gt;High-level Architecture&lt;/h1&gt;" style="text;html=1;align=left;verticalAlign=middle;whiteSpace=wrap;rounded=0;fontSize=22;fontFamily=Tahoma;textShadow=0;labelBackgroundColor=none;labelBorderColor=none;convertToSvg=0;spacingTop=0;spacing=2;" parent="1" vertex="1">
          <mxGeometry x="40" y="40" width="600" height="80" as="geometry" />
        </mxCell>
      </root>
    </mxGraphModel>
  </diagram>
</mxfile>
